<?xml version="1.0" encoding="UTF-8"?>
<svg id="_레이어_1" data-name="레이어 1" xmlns="http://www.w3.org/2000/svg" viewBox="0 0 509.41 514.88">
  <defs>
    <style>
      .cls-1 {
        fill: #f3afcc;
      }

      .cls-2 {
        fill: #f2ee71;
      }

      .cls-3 {
        fill: #fff;
      }

      .cls-4 {
        fill: #ea5514;
      }

      .cls-5 {
        stroke-linecap: round;
        stroke-linejoin: round;
        stroke-width: .5px;
      }

      .cls-5, .cls-6, .cls-7 {
        fill: none;
      }

      .cls-5, .cls-7 {
        stroke: #231815;
      }

      .cls-6 {
        stroke: #040000;
      }

      .cls-6, .cls-7 {
        stroke-miterlimit: 10;
        stroke-width: .75px;
      }

      .cls-8 {
        fill: #8fc31f;
      }

      .cls-9 {
        fill: #231815;
      }

      .cls-10 {
        fill: #78cae0;
      }
    </style>
  </defs>
  <polyline class="cls-7" points="24.53 478.99 41.85 403.41 55.34 358.89"/>
  <path class="cls-7" d="M41.67,500.42c-3.81-21.46,4.11-56.47,4.11-56.47,15.18-37.13,15.18-48.45,15.18-48.45-5.94-26.56-5.62-39.91-5.62-39.91l5.76-20.5c1.98-7.05,5.32-13.67,9.83-19.52l16.47-21.32"/>
  <path class="cls-7" d="M41.67,500.42l48.61,14.06s3.02-1.2,6.04-1.86"/>
  <path class="cls-7" d="M24.98,478.61c-6.73,1.81-12.16-3.87-12.16-3.87l29.27-161.65,34.05-18.02s21.96-2.36,42.44,0l34.05,18.02,29.27,161.65s-5.44,5.68-12.16,3.87"/>
  <polyline class="cls-7" points="13.81 198.06 32.89 122.48 49.42 73"/>
  <path class="cls-7" d="M32.7,219.49c2.16-21.82,9.17-48.34,9.17-48.34,17.45-42.55,14.73-64.36,14.73-64.36-11.87-19.72-4.64-44.49-4.64-44.49l12.25-21.52,12.16-25.14"/>
  <path class="cls-7" d="M32.7,219.49l53.57,14.06c1.64-.82,3.9-1.66,6.66-1.86.49-.04,1.32-.09,2.41,0,0,0,1.85.15,6.66,1.86,17.86-4.69,35.72-9.38,53.57-14.06"/>
  <path class="cls-7" d="M70.2,9.31l.63-7.18c.1-1.12,1.42-1.65,2.27-.91,2.69,2.34,7.94,6.39,15.03,9.48l6,9c-21.02-.58-23.93-10.39-23.93-10.39l-37.53,18.53L.41,194.08s5.99,5.84,13.4,3.98"/>
  <path class="cls-7" d="M64.2,40.78s13.12,60.01,2.75,120.01l2.05,68.67"/>
  <line class="cls-7" x1="50.88" y1="145.44" x2="60.69" y2="226.84"/>
  <polyline class="cls-7" points="174.46 198.06 155.38 122.48 139.1 73.75"/>
  <path class="cls-7" d="M155.57,219.49c-2.16-21.82-9.17-48.34-9.17-48.34-17.45-42.55-14.73-64.36-14.73-64.36,11.87-19.72,5.36-44.49,5.36-44.49l-12.97-21.52-12.16-25.14"/>
  <path class="cls-7" d="M118.06,9.31l-.63-7.18c-.1-1.12-1.42-1.65-2.27-.91-2.69,2.34-7.94,6.39-15.03,9.48l-6,9c21.02-.58,23.93-10.39,23.93-10.39l37.53,18.53,32.27,166.23s-5.99,5.84-13.4,3.98"/>
  <path class="cls-7" d="M124.07,40.78s-13.12,60.01-2.75,120.01l-3.03,68.21"/>
  <line class="cls-7" x1="137.39" y1="145.44" x2="126.5" y2="226.34"/>
  <line class="cls-7" x1="94.13" y1="145.44" x2="94.13" y2="19.7"/>
  <polyline class="cls-7" points="91.22 19.7 91.22 147.97 97.04 147.97 97.04 19.7"/>
  <path class="cls-7" d="M69.01,229.45s22.16-16.71,49.28-.45"/>
  <polyline class="cls-7" points="170.2 478.99 152.89 403.41 139.39 358.89"/>
  <path class="cls-7" d="M153.06,500.42c3.81-21.46-4.11-56.47-4.11-56.47-15.18-37.13-15.18-48.45-15.18-48.45,5.94-26.56,5.62-39.91,5.62-39.91l-5.76-20.5c-1.98-7.05-5.32-13.67-9.83-19.52l-16.67-21.58"/>
  <path class="cls-7" d="M119.13,295.35l-.91-4.69c-.09-1.09-1.34-2.06-2.44-2.17-4.73-.45-6.56-.3-17.93-.3"/>
  <path class="cls-7" d="M96.08,512.68l2.33-.05c3.03.66,6.04,1.86,6.04,1.86l48.61-14.06"/>
  <polyline class="cls-7" points="48.94 70.62 24.81 134.12 10.63 197.61"/>
  <polyline class="cls-7" points="139.33 70.62 163.45 134.12 177.64 197.61"/>
  <path class="cls-7" d="M21.87,478.99c10.54-103.19,44.44-156.43,44.44-156.43"/>
  <path class="cls-7" d="M172.96,478.99c-10.63-103.19-47.05-160.5-47.05-160.5"/>
  <g>
    <g>
      <path class="cls-9" d="M83.19,348.07c-.38.32-.85.49-1.41.49-.29,0-.58-.04-.86-.11-.14-.04-.27-.08-.36-.11-.1-.03-.18-.05-.25-.07-.06,0-.1.03-.13.07-.02.04-.03.07-.03.1h-.11l-.16-1.41.09-.06c.07.16.16.3.27.44.11.14.24.26.39.37.15.11.31.19.5.25.18.06.38.09.6.09.18,0,.35-.03.5-.08.15-.06.29-.14.4-.24.11-.1.2-.22.27-.36.07-.14.1-.29.1-.45,0-.36-.13-.64-.38-.86-.12-.11-.27-.21-.43-.32-.16-.11-.34-.22-.54-.32-.23-.12-.44-.25-.63-.38-.19-.13-.36-.26-.52-.41-.31-.29-.47-.68-.47-1.15,0-.42.17-.79.52-1.1.34-.31.77-.46,1.27-.46.27,0,.52.04.77.12.12.04.23.07.33.1.09.03.17.05.23.06.07,0,.11-.03.14-.07.02-.04.04-.08.04-.11h.1l.12,1.41h-.14c-.1-.29-.28-.54-.54-.74-.26-.2-.61-.3-1.04-.3-.32,0-.58.09-.78.28-.2.19-.3.42-.3.71s.15.55.46.8c.3.23.65.46,1.07.68l-.07-.03c.26.13.48.27.68.4.2.14.36.29.5.44.14.16.24.33.31.51.07.18.1.39.1.61,0,.47-.2.87-.59,1.2Z"/>
      <path class="cls-9" d="M84.23,348.44v-.09h.13c.12,0,.21-.03.25-.1.04-.07.06-.19.06-.36v-5.23c0-.17-.02-.29-.06-.36-.04-.07-.12-.1-.25-.1h-.13v-.09h4.17v.96s-.12,0-.12,0c-.04-.25-.12-.4-.24-.45-.11-.04-.27-.07-.48-.07h-1.89c-.11,0-.17.01-.19.04-.01.02-.02.08-.02.18v2.14h1.9c.24,0,.4-.03.47-.09.07-.06.12-.19.14-.37h.12v1.41h-.12c-.01-.09-.03-.17-.05-.23-.02-.06-.05-.11-.09-.15-.04-.04-.1-.06-.18-.08-.08-.02-.18-.02-.29-.02h-1.9v2.44c0,.09.03.14.09.15.06.02.18.02.36.02h1.54c.15,0,.28,0,.39-.02.11-.02.21-.05.29-.1.09-.05.17-.12.23-.2.07-.08.13-.2.2-.34h.15l-.23,1.11h-4.27Z"/>
      <path class="cls-9" d="M95.62,348.44h-1.59v-.09c.15,0,.26-.02.32-.07.02-.02.04-.06.04-.11.01-.06,0-.12-.04-.21l-.58-1.42h-2.82l-.52,1.31c-.05.13-.07.23-.07.29,0,.06.01.1.04.12.06.06.17.09.32.09v.09h-1.4v-.09c.14-.01.26-.07.36-.17.1-.1.18-.23.25-.38l2.39-5.75h.42l2.49,6c.07.13.14.21.2.24.06.03.13.05.2.07v.09ZM92.38,343.02l-1.23,3.05h2.47l-1.23-3.05Z"/>
      <path class="cls-9" d="M99.8,342.95c0-.28-.02-.48-.07-.58-.04-.11-.14-.16-.28-.16h-.14v-.09h1.49v.09h-.14c-.14,0-.24.05-.28.16-.04.11-.07.3-.07.58v3.27c0,.75-.21,1.32-.62,1.73-.41.4-.99.6-1.75.6s-1.34-.2-1.75-.61c-.41-.41-.62-.99-.62-1.74v-3.55c0-.17-.02-.29-.07-.36-.04-.07-.13-.1-.27-.1h-.14v-.09h1.74v.09h-.13c-.14,0-.24.03-.28.1-.04.07-.06.19-.06.36v3.56c0,1.24.56,1.86,1.69,1.86.54,0,.97-.15,1.27-.46.31-.31.46-.74.46-1.29v-3.39Z"/>
      <path class="cls-9" d="M102.68,347.89c0,.17.02.29.06.36.04.07.13.1.28.1h.13v.09h-1.7v-.09h.13c.12,0,.21-.03.25-.1.04-.07.06-.19.06-.36v-5.23c0-.17-.02-.29-.06-.36-.04-.07-.12-.1-.25-.1h-.13v-.09h2.24c.66,0,1.18.14,1.54.43.37.28.55.7.55,1.25,0,.39-.13.73-.4,1-.27.27-.67.45-1.21.52.18.16.34.31.48.45.14.14.25.26.34.36.09.11.18.23.29.36.11.14.22.29.35.45.11.14.2.29.28.45.08.17.15.32.23.46.07.14.16.26.25.36.09.1.2.14.32.14v.09h-1.14c-.07-.14-.13-.26-.18-.36-.05-.1-.11-.21-.17-.33-.07-.12-.13-.22-.18-.32-.15-.24-.31-.46-.48-.67-.17-.21-.3-.37-.39-.49-.18-.22-.48-.48-.9-.8h-.58v2.41ZM103.13,345.04c.57,0,1.01-.11,1.34-.34.32-.22.49-.56.49-1.01,0-.39-.13-.68-.39-.87-.26-.18-.65-.28-1.16-.28-.2,0-.35,0-.46.02-.11.02-.2.06-.26.14v2.33h.45Z"/>
      <path class="cls-9" d="M107.93,347.33c.44.51,1.04.76,1.81.76.34,0,.67-.05.99-.16.32-.11.6-.26.83-.47l.13.35c-.3.26-.62.45-.97.57-.35.12-.73.18-1.14.18-.97,0-1.74-.3-2.31-.89-.57-.59-.86-1.39-.86-2.39s.3-1.74.89-2.37c.6-.62,1.36-.93,2.28-.93.35,0,.68.04.99.11.16.03.29.06.39.09.11.03.19.05.25.07.05,0,.1-.03.14-.09.04-.06.07-.12.08-.17h.1l.06,1.27v.27s-.09.03-.09.03c-.1-.22-.22-.4-.35-.53-.13-.14-.28-.25-.45-.34-.16-.08-.33-.14-.5-.19-.17-.04-.34-.07-.52-.07-.75,0-1.34.26-1.78.77-.43.52-.65,1.2-.65,2.06s.22,1.56.65,2.06Z"/>
      <path class="cls-9" d="M112.88,342.3c-.04-.07-.13-.1-.28-.1h-.13v-.09h1.71v.09h-.13c-.13,0-.22.03-.26.1-.04.07-.06.19-.06.36v2.3h3.06v-2.3c0-.17-.02-.29-.06-.36-.04-.07-.13-.1-.28-.1h-.13v-.09h1.72v.09h-.13c-.14,0-.23.03-.27.1-.04.07-.06.19-.06.36v5.23c0,.17.02.29.06.36.04.07.13.1.27.1h.13v.09h-1.72v-.09h.13c.14,0,.24-.03.28-.1.04-.07.06-.19.06-.36v-2.45h-3.06v2.45c0,.17.02.29.06.36.04.07.13.1.26.1h.13v.09h-1.71v-.09h.13c.14,0,.24-.03.28-.1.04-.07.06-.19.06-.36v-5.23c0-.17-.02-.29-.06-.36Z"/>
      <path class="cls-9" d="M120.06,348.25c.04.07.14.1.29.1h.15v.09h-1.81v-.09h.15c.16,0,.25-.03.29-.1.04-.07.06-.19.06-.36v-5.23c0-.17-.02-.29-.06-.36-.04-.07-.14-.1-.29-.1h-.15v-.09h1.81v.09h-.15c-.16,0-.25.03-.29.1-.04.07-.06.19-.06.36v5.23c0,.17.02.29.06.36Z"/>
      <path class="cls-9" d="M126.03,342.89c0-.26-.02-.44-.06-.54-.04-.1-.14-.15-.29-.15h-.16v-.09h1.52v.09h-.15c-.14,0-.24.05-.28.15-.04.1-.07.28-.07.54v5.59h-.48l-3.75-5.37v4.56c0,.25.02.42.07.52.04.1.14.15.28.15h.14v.09h-1.51v-.09h.15c.15,0,.25-.05.29-.15.04-.1.07-.27.07-.52v-5.08l-.16-.29s-.06-.08-.1-.09c-.03,0-.08-.01-.14-.01h-.11v-.09h1.23c.59.88,1.17,1.73,1.75,2.55.58.82,1.16,1.67,1.75,2.55v-4.32Z"/>
    </g>
    <path d="M78.63,348l-2.6-1.74c.09-.26.15-.53.16-.82l3.15-.8-5.44.22.21-.13.57-.35,1.37.08c-.13-.38-.34-.71-.61-1l3.35-2.46-3.67,2.17c-.06-.05-.12-.09-.19-.13l1.53-3.81-2.73,4.72-.18-.51.53-.76c-.19-.04-.38-.06-.58-.06-.13,0-.25.01-.37.03l-1.47-3.72,1.07,3.8c-.35.1-.66.27-.94.49l-3.54-3.16,4.51,5.17-.77-.05-.08-.11-.78-1.07c-.19.34-.32.73-.35,1.14l-3.15.19,3.15.13c.02.41.12.8.31,1.15l-2.66,2.58,4.36-3-.33.68-.81.47c.3.28.66.49,1.05.61l-1.06,3.15,1.39-3.07c.15.03.3.04.46.04.37,0,.73-.08,1.05-.21l1.71,2.21-1.61-3.78.67.57.12.39c.18-.18.34-.39.46-.62l2.77,1.36Z"/>
  </g>
  <g>
    <path class="cls-9" d="M61.81,37.61c.05.26,0,.52-.14.78-.08.14-.17.26-.27.37-.06.06-.11.1-.14.14-.04.04-.07.07-.1.1-.01.03-.01.06,0,.08.01.02.03.03.04.04l-.03.05-.7-.29v-.06c.09,0,.18,0,.27,0,.09-.01.18-.04.27-.09.09-.04.17-.1.25-.17.08-.07.14-.15.2-.25.05-.08.08-.17.09-.25.01-.09.01-.17,0-.25-.02-.08-.05-.15-.1-.22-.05-.07-.11-.12-.18-.16-.17-.09-.33-.11-.5-.04-.08.03-.17.07-.26.12-.09.05-.19.1-.29.17-.12.08-.23.14-.34.2-.11.06-.22.1-.32.14-.22.07-.44.04-.66-.08-.2-.11-.32-.29-.38-.53-.05-.24-.02-.48.11-.71.07-.12.15-.23.25-.33.05-.05.09-.09.13-.13.04-.04.07-.07.09-.09.01-.03.02-.06,0-.08-.01-.02-.03-.04-.04-.05l.03-.05.69.31-.03.07c-.17-.03-.33-.01-.49.06-.16.07-.3.2-.41.41-.08.15-.11.29-.07.44.03.14.12.25.25.33s.29.07.49,0c.18-.08.38-.19.59-.32l-.03.02c.13-.09.25-.16.36-.21.11-.06.23-.1.34-.12.11-.02.22-.03.32-.01.1.02.21.05.31.11.22.12.36.32.41.58Z"/>
    <path class="cls-9" d="M62.25,37.22l-.04-.02.03-.06c.03-.06.04-.11.02-.14-.02-.04-.07-.08-.15-.12l-2.44-1.35c-.08-.04-.14-.07-.18-.06-.04,0-.08.03-.11.09l-.03.06-.04-.02,1.08-1.94.45.24-.03.06c-.13-.05-.22-.05-.27,0-.05.04-.1.11-.15.21l-.49.88c-.03.05-.04.08-.03.1,0,.01.03.03.08.05l1,.55.49-.88c.06-.11.09-.19.08-.24-.01-.05-.06-.1-.14-.16l.03-.06.66.36-.03.06s-.09-.03-.12-.04c-.03,0-.06,0-.09,0-.03,0-.06.03-.08.06-.03.03-.06.08-.09.13l-.49.88,1.14.63s.07.02.1,0c.02-.02.06-.08.1-.16l.4-.72c.04-.07.07-.13.09-.19.02-.05.03-.11.03-.16,0-.05-.01-.11-.03-.16-.02-.05-.06-.11-.11-.18l.04-.07.46.4-1.1,1.99Z"/>
    <path class="cls-9" d="M65.19,31.91l-.41.74-.04-.02c.04-.07.05-.13.05-.17,0-.02-.02-.03-.04-.05-.02-.02-.06-.03-.11-.04l-.81-.1-.73,1.31.48.58c.05.06.09.09.12.11.03.01.05.02.07.01.05-.01.09-.05.13-.12l.04.02-.36.65-.04-.02c.03-.07.03-.14.01-.21-.02-.07-.06-.14-.11-.22l-2.06-2.6.11-.2,3.44.39c.08,0,.14-.01.17-.03.03-.02.06-.05.08-.08l.04.02ZM61.83,32.03l1.1,1.36.64-1.15-1.74-.21Z"/>
    <path class="cls-9" d="M63.71,28.55c-.13-.07-.23-.11-.29-.12-.06,0-.11.02-.15.09l-.04.07-.04-.02.38-.69.04.02-.04.07c-.04.07-.04.12,0,.17.04.05.12.11.26.18l1.53.84c.35.19.56.44.64.73.08.3.02.62-.17.97s-.44.57-.73.66c-.3.09-.62.03-.97-.16l-1.65-.91c-.08-.04-.14-.07-.18-.06-.04,0-.08.04-.12.1l-.04.07-.04-.02.45-.81.04.02-.03.06c-.04.07-.05.12-.03.15.02.04.07.08.15.12l1.66.92c.58.32,1.01.22,1.3-.31.14-.25.18-.49.11-.71-.07-.22-.23-.4-.48-.55l-1.58-.87Z"/>
    <path class="cls-9" d="M66.76,28.48c.08.05.14.07.18.06.04,0,.08-.04.12-.1l.03-.06.04.02-.44.79-.04-.02.03-.06c.03-.06.04-.11.02-.14-.02-.04-.07-.08-.15-.12l-2.44-1.35c-.08-.04-.14-.07-.18-.06-.04,0-.08.03-.11.09l-.03.06-.04-.02.58-1.04c.17-.31.37-.51.6-.61.23-.1.47-.08.72.06.18.1.3.25.36.44.06.19.04.43-.07.7.12-.04.23-.08.33-.11.1-.03.19-.05.26-.07.07-.01.15-.03.24-.04.09-.01.19-.03.3-.05.09-.01.19-.02.28-.01.1,0,.19.01.27.01.08,0,.16,0,.23-.02.07-.02.12-.05.15-.11l.04.02-.29.53c-.08,0-.15,0-.21-.01-.06,0-.13,0-.2,0-.07,0-.14,0-.2,0-.15,0-.29.02-.44.05-.14.02-.25.04-.33.06-.15.03-.35.1-.6.21l-.15.27,1.12.62ZM65.54,27.53c.15-.26.21-.5.19-.71-.02-.21-.14-.37-.35-.49-.18-.1-.35-.11-.5-.04-.15.07-.3.23-.43.47-.05.09-.09.17-.11.22-.02.05-.02.11,0,.15l1.09.6.12-.21Z"/>
    <path class="cls-9" d="M67.85,25.89c.35-.07.62-.29.82-.65.09-.16.15-.32.18-.5.03-.18.03-.35,0-.51l.2.03c.04.21.05.41.01.6-.03.19-.11.39-.21.58-.25.45-.59.73-1.01.85-.42.11-.87.04-1.33-.21s-.74-.59-.87-1.02c-.13-.44-.08-.87.16-1.3.09-.16.19-.31.31-.43.05-.06.1-.12.14-.16.04-.04.07-.08.1-.1.01-.02.01-.05,0-.09-.02-.04-.04-.06-.06-.08l.03-.05.61.3.13.07v.06c-.14,0-.25,0-.35.02-.1.03-.19.07-.27.12-.08.05-.15.12-.22.18-.06.07-.12.14-.16.23-.19.35-.23.69-.1,1.03.13.33.39.61.79.83s.78.3,1.13.23Z"/>
    <path class="cls-9" d="M66.78,22.28s-.08.04-.12.1l-.03.06-.04-.02.44-.8.04.02-.03.06c-.03.06-.04.11-.02.15.02.04.07.08.15.12l1.07.59.79-1.43-1.07-.59c-.08-.04-.14-.07-.18-.06-.04,0-.08.04-.12.1l-.03.06-.04-.02.44-.8.04.02-.03.06c-.04.06-.04.11-.02.15.02.04.07.08.15.12l2.44,1.35c.08.05.14.07.18.06.04,0,.08-.03.11-.1l.03-.06.04.02-.44.8-.04-.02.03-.06c.04-.07.05-.12.03-.15-.02-.04-.07-.08-.15-.12l-1.14-.63-.79,1.43,1.14.63c.08.05.14.07.18.06.04,0,.08-.03.11-.09l.03-.06.04.02-.44.8-.04-.02.03-.06c.04-.07.05-.12.03-.15-.02-.04-.07-.08-.15-.12l-2.44-1.35c-.08-.04-.14-.07-.18-.06Z"/>
    <path class="cls-9" d="M71.4,20.48s.08-.04.12-.11l.04-.07.04.02-.47.85-.04-.02.04-.07c.04-.07.05-.13.03-.16-.02-.04-.07-.08-.15-.12l-2.44-1.35c-.08-.04-.14-.07-.18-.06-.04,0-.08.04-.12.11l-.04.07-.04-.02.47-.85.04.02-.04.07c-.04.07-.05.13-.03.16.02.04.07.08.15.12l2.44,1.35c.08.05.14.07.18.06Z"/>
    <path class="cls-9" d="M70.45,16.31c-.12-.07-.21-.1-.27-.11-.06,0-.1.02-.14.09l-.04.07-.04-.02.39-.71.04.02-.04.07c-.04.07-.04.12,0,.17.04.05.11.1.24.17l2.61,1.44-.12.22-3.47.36,2.12,1.17c.12.06.2.1.26.1.06,0,.11-.03.14-.09l.04-.07.04.02-.39.7-.04-.02.04-.07c.04-.07.04-.13,0-.17-.04-.05-.11-.1-.23-.17l-2.37-1.31h-.18s-.05,0-.07.02c-.01.01-.03.03-.04.06l-.03.05-.04-.02.32-.58c.56-.05,1.11-.1,1.64-.16.53-.06,1.08-.11,1.64-.16l-2.01-1.11Z"/>
  </g>
  <g>
    <path class="cls-9" d="M35.91,60.64c.13.21.19.45.19.73s-.07.54-.21.74c-.14.21-.34.31-.61.31-.3,0-.51-.11-.63-.32-.12-.21-.18-.46-.18-.73,0-.25.06-.49.17-.71.12-.22.33-.34.64-.34.29,0,.5.1.63.31ZM36.06,61.37c0-.27-.06-.51-.18-.71-.12-.2-.32-.3-.59-.3-.29,0-.5.11-.61.32-.11.21-.17.45-.17.69,0,.27.06.51.18.71.11.2.32.31.6.31.25,0,.44-.1.58-.3.13-.2.2-.44.2-.72Z"/>
    <path class="cls-9" d="M35.88,60.66c.12.2.18.44.18.71s-.07.52-.2.72c-.13.2-.33.3-.58.3-.29,0-.49-.1-.6-.31-.12-.21-.18-.44-.18-.71,0-.24.06-.47.17-.69.11-.21.31-.32.61-.32.27,0,.47.1.59.3ZM35.66,61.37c0-.24-.04-.42-.1-.54-.07-.12-.16-.18-.28-.18-.12,0-.22.07-.28.2-.06.13-.1.31-.1.53,0,.23.04.42.1.54.07.13.16.19.28.19s.21-.06.28-.19c.07-.12.1-.31.1-.54Z"/>
    <path class="cls-9" d="M35.66,48.71l-1.77,2.33-.74,1.07v3.96l.74,1.07,1.77,2.32h-2.02l-1.48-2.14-1.48,2.14h-3.72l-1.48-2.14-1.48,2.14h-2.02l1.77-2.33.74-1.07v-3.96l-.74-1.07-1.77-2.32h2.02l1.48,2.14,1.48-2.14h3.72l1.48,2.14,1.48-2.14h2.02ZM33.77,50.94l1.57-2.06h-1.62l-1.49,2.16-.06-.05-.06.05-1.49-2.16h-1.62l1.57,2.06.78,1.12v4.05h-.08l.06.05-.76,1.1-1.57,2.06h1.62l1.49-2.16.06.05.06-.05,1.49,2.16h1.62l-1.57-2.06-.76-1.1.06-.05h-.08v-4.05l.77-1.12ZM31.17,56.07v-3.96l-.74-1.07-1.61-2.11-1.61,2.11-.74,1.07v3.96l.74,1.07,1.61,2.11,1.61-2.11.74-1.07ZM27.09,50.94l1.57-2.06h-1.62l-1.49,2.16-.06-.05-.06.05-1.49-2.16h-1.62l1.57,2.06.78,1.12v4.05h-.08l.06.05-.76,1.1-1.57,2.06h1.62l1.49-2.16.06.05.06-.05,1.49,2.16h1.62l-1.57-2.06-.76-1.1.06-.05h-.08v-4.05l.77-1.12Z"/>
    <path class="cls-9" d="M35.56,60.83c.07.12.1.3.1.54s-.04.42-.1.54c-.07.13-.16.19-.28.19s-.21-.06-.28-.19c-.07-.12-.1-.31-.1-.54,0-.22.03-.4.1-.53.07-.13.16-.2.28-.2s.21.06.28.18ZM35.62,61.37c0-.23-.03-.41-.1-.52-.06-.11-.14-.16-.25-.16s-.19.06-.25.18c-.06.12-.09.29-.09.51,0,.23.03.4.1.52.06.12.14.17.24.17s.18-.06.25-.17c.06-.12.1-.29.1-.52Z"/>
    <polygon class="cls-9" points="35.33 48.88 33.77 50.94 32.99 52.06 32.99 56.1 33.07 56.1 33.01 56.15 33.77 57.25 35.33 59.31 33.71 59.31 32.22 57.15 32.16 57.2 32.1 57.15 30.6 59.31 28.98 59.31 30.55 57.25 31.31 56.15 31.25 56.1 31.32 56.1 31.32 52.06 30.55 50.94 28.98 48.88 30.6 48.88 32.1 51.04 32.16 50.99 32.22 51.04 33.71 48.88 35.33 48.88"/>
    <path class="cls-9" d="M34.33,60.35v.36h-.52v1.69h-.48v-1.69h-.52v-.36h1.52ZM34.29,60.67v-.28h-1.44v.28h.52v1.69h.4v-1.69h.52Z"/>
    <polygon class="cls-9" points="34.29 60.39 34.29 60.67 33.77 60.67 33.77 62.36 33.37 62.36 33.37 60.67 32.85 60.67 32.85 60.39 34.29 60.39"/>
    <path class="cls-9" d="M32.5,60.64c.13.21.19.45.19.73s-.07.54-.21.74c-.14.21-.34.31-.61.31-.3,0-.51-.11-.63-.32-.12-.21-.18-.46-.18-.73,0-.25.06-.49.17-.71.12-.22.33-.34.64-.34.29,0,.5.1.63.31ZM32.65,61.37c0-.27-.06-.51-.18-.71-.12-.2-.32-.3-.59-.3-.29,0-.5.11-.61.32-.11.21-.17.45-.17.69,0,.27.06.51.17.71.11.2.32.31.6.31.25,0,.44-.1.57-.3.13-.2.2-.44.2-.72Z"/>
    <path class="cls-9" d="M32.47,60.66c.12.2.18.44.18.71s-.07.52-.2.72c-.13.2-.33.3-.57.3-.29,0-.49-.1-.6-.31-.12-.21-.17-.44-.17-.71,0-.24.06-.47.17-.69.11-.21.32-.32.61-.32.27,0,.47.1.59.3ZM32.25,61.37c0-.24-.03-.42-.1-.54-.07-.12-.16-.18-.28-.18-.12,0-.22.07-.28.2-.06.13-.1.31-.1.53,0,.23.04.42.1.54.07.13.16.19.28.19s.21-.06.28-.19c.07-.12.1-.31.1-.54Z"/>
    <path class="cls-9" d="M32.15,60.83c.07.12.1.3.1.54s-.03.42-.1.54c-.07.13-.16.19-.28.19s-.21-.06-.28-.19c-.07-.12-.1-.31-.1-.54,0-.22.03-.4.1-.53.07-.13.16-.2.28-.2.11,0,.21.06.28.18ZM32.21,61.37c0-.23-.03-.41-.1-.52-.06-.11-.14-.16-.25-.16-.11,0-.19.06-.25.18-.06.12-.09.29-.09.51,0,.23.03.4.1.52.06.12.14.17.24.17s.18-.06.24-.17c.06-.12.1-.29.1-.52Z"/>
    <path class="cls-9" d="M30.85,60.35v2.05h-.47v-.78l-.27.78h-.34l-.27-.78v.78h-.47v-2.05h.49l.42,1.26.42-1.26h.49ZM30.81,62.36v-1.97h-.43l-.45,1.34-.45-1.34h-.43v1.97h.4v-.96l.34.96h.28l.34-.96v.96h.4Z"/>
    <polygon class="cls-9" points="30.81 60.39 30.81 62.36 30.42 62.36 30.42 61.4 30.08 62.36 29.79 62.36 29.45 61.4 29.45 62.36 29.06 62.36 29.06 60.39 29.49 60.39 29.94 61.73 30.39 60.39 30.81 60.39"/>
    <path class="cls-9" d="M28.11,60.34l.79,2.06h-.5l-.14-.35h-.62l-.14.35h-.5l.79-2.06h.33ZM28.84,62.36l-.76-1.98h-.28l-.76,1.98h.42l.14-.35h.67l.14.35h.42Z"/>
    <path class="cls-9" d="M28.08,60.38l.76,1.98h-.42l-.14-.35h-.67l-.14.35h-.42l.76-1.98h.28ZM28.18,61.66l-.23-.68-.23.68h.47Z"/>
    <polygon class="cls-9" points="28.66 48.88 27.09 50.94 26.32 52.06 26.32 56.1 26.39 56.1 26.33 56.15 27.09 57.25 28.66 59.31 27.04 59.31 25.54 57.15 25.48 57.2 25.42 57.15 23.93 59.31 22.31 59.31 23.87 57.25 24.63 56.15 24.57 56.1 24.65 56.1 24.65 52.06 23.87 50.94 22.31 48.88 23.93 48.88 25.42 51.04 25.48 50.99 25.54 51.04 27.04 48.88 28.66 48.88"/>
    <path class="cls-9" d="M27.94,60.99l.23.68h-.47l.23-.68ZM28.12,61.62l-.18-.52-.18.52h.36Z"/>
    <path class="cls-9" d="M26.87,60.35v2.05h-.47v-.78l-.27.78h-.34l-.27-.78v.78h-.48v-2.05h.49l.42,1.26.42-1.26h.49ZM26.84,62.36v-1.97h-.43l-.45,1.34-.45-1.34h-.43v1.97h.4v-.96l.34.96h.28l.34-.96v.96h.4Z"/>
    <polygon class="cls-9" points="26.84 60.39 26.84 62.36 26.44 62.36 26.44 61.4 26.1 62.36 25.82 62.36 25.48 61.4 25.48 62.36 25.08 62.36 25.08 60.39 25.51 60.39 25.96 61.73 26.41 60.39 26.84 60.39"/>
    <path class="cls-9" d="M24.13,60.34l.79,2.06h-.5l-.14-.35h-.62l-.14.35h-.5l.79-2.06h.33ZM24.86,62.36l-.76-1.98h-.28l-.76,1.98h.42l.14-.35h.67l.14.35h.42Z"/>
    <path class="cls-9" d="M24.1,60.38l.76,1.98h-.42l-.14-.35h-.67l-.14.35h-.42l.76-1.98h.28ZM24.2,61.66l-.23-.68-.23.68h.47Z"/>
    <path class="cls-9" d="M23.97,60.99l.23.68h-.47l.23-.68ZM24.14,61.62l-.18-.52-.18.52h.36Z"/>
    <path class="cls-9" d="M23.03,60.35l-.58,1.19v.86h-.48v-.86l-.58-1.19h.5l.32.71.32-.71h.5ZM22.41,61.52l.55-1.13h-.41l-.35.76-.35-.76h-.41l.56,1.14v.83h.4v-.84Z"/>
    <polygon class="cls-9" points="22.96 60.39 22.41 61.52 22.4 62.36 22.01 62.36 22.01 61.53 21.45 60.39 21.86 60.39 22.21 61.15 22.55 60.39 22.96 60.39"/>
  </g>
  <g>
    <g>
      <path class="cls-8" d="M476.74,27.34l32.26,166.24s-4.28,4.07-10.07,4.22l-15.03-64.88-24.48-64.06c-.53-4.35-1.24-7.06-1.24-7.06l-12.97-21.52-12.16-25.14c5.15-2.92,6.16-6.33,6.16-6.33l37.53,18.53Z"/>
      <path class="cls-1" d="M483.9,132.92l15.03,64.88c-1.07.04-2.2-.07-3.36-.36l-19.05-75.46-16.73-49.24h-.01c-.09-1.4-.22-2.7-.36-3.88l24.48,64.06Z"/>
      <path class="cls-2" d="M476.71,218.99c-9.72,2.55-19.45,5.11-29.18,7.66l11-81.71c2.15,7.5,5.06,16.07,9.02,25.71,0,0,7,26.52,9.16,48.34Z"/>
      <path class="cls-10" d="M459.78,72.74c.62,9.01-.08,22.13-6.96,33.55,0,0-1.63,13.05,5.71,38.65l-11,81.71c-2.67.71-5.35,1.41-8.03,2.11l-.07-.26,3.03-68.21c-10.37-60,2.75-120.01,2.75-120.01l12.97,21.52s.71,2.71,1.24,7.06c.14,1.18.27,2.48.36,3.88Z"/>
      <path class="cls-2" d="M433.05,15.14l12.16,25.14s-13.12,60.01-2.75,120.01l-3.03,68.21c-24.9-14.93-45.61-2.07-48.84.14l-.45-.12-2.05-68.23c10.37-60-2.75-120.01-2.75-120.01l12.16-25.14c3.15,1.79,7.88,3.4,14.88,3.92v.14s-.01,128.27-.01,128.27h5.81V19.06c6.99-.52,11.71-2.13,14.87-3.92Z"/>
      <path class="cls-2" d="M439.43,228.5l.07.26c-5.45,1.44-10.91,2.87-16.36,4.3-4.81-1.71-6.66-1.86-6.66-1.86-1.09-.09-1.91-.04-2.41,0-2.76.19-5.02,1.04-6.66,1.86l-16.82-4.42c3.23-2.21,23.94-15.07,48.84-.14Z"/>
      <path class="cls-2" d="M438.58,1.63l.63,7.18s-1.01,3.41-6.16,6.33c-3.16,1.79-7.88,3.4-14.88,3.92-.92.06-1.89.11-2.89.14l6-9c7.08-3.1,12.34-7.15,15.03-9.49.85-.73,2.17-.2,2.27.92Z"/>
      <path class="cls-2" d="M418.18,19.2v128.27h-2.9V19.2c1-.03,1.97-.08,2.89-.14v.14Z"/>
      <path class="cls-2" d="M415.28,144.94v2.53h-2.91V19.06c.94.06,1.9.11,2.91.14v125.74Z"/>
      <path class="cls-2" d="M409.28,10.2l6,9c-1.01-.03-1.97-.08-2.9-.14-7-.52-11.73-2.13-14.88-3.92-5.14-2.92-6.15-6.33-6.15-6.33l.62-7.18c.1-1.12,1.42-1.65,2.27-.92,2.69,2.34,7.95,6.39,15.04,9.49Z"/>
      <path class="cls-8" d="M397.5,15.14l-12.16,25.14-12.25,21.52s-.67,2.29-1.26,6.02l-25.87,65.8-14.37,64.3c-5.78-.18-10.04-4.34-10.04-4.34l32.26-166.24,37.54-18.53s1.01,3.41,6.15,6.33Z"/>
      <path class="cls-10" d="M388.09,160.29l2.05,68.23-8.31-2.18-9.81-81.4c7.34-25.6,5.71-38.65,5.71-38.65-6.85-11.38-7.34-24.44-6.53-33.45.17-1.86.39-3.55.63-5.02.59-3.73,1.26-6.02,1.26-6.02l12.25-21.52s13.12,60.01,2.75,120.01Z"/>
      <path class="cls-2" d="M372.02,144.94l9.81,81.4-27.99-7.35c2.16-21.82,9.16-48.34,9.16-48.34,3.96-9.64,6.87-18.21,9.02-25.71Z"/>
      <path class="cls-1" d="M345.96,133.62l25.87-65.8c-.24,1.47-.46,3.16-.63,5.02h-.07s-17.1,49.14-17.1,49.14l-19.08,75.58c-1.16.29-2.29.39-3.36.36l14.37-64.3Z"/>
    </g>
    <g>
      <polyline class="cls-7" points="334.95 197.56 354.03 121.98 371.13 72.83"/>
      <path class="cls-7" d="M353.84,218.99c2.16-21.82,9.16-48.34,9.16-48.34,3.96-9.64,6.87-18.21,9.02-25.71,7.34-25.6,5.71-38.65,5.71-38.65-6.85-11.38-7.34-24.44-6.53-33.45.17-1.86.39-3.55.63-5.02.59-3.73,1.26-6.02,1.26-6.02l12.25-21.52,12.16-25.14"/>
      <path class="cls-7" d="M353.84,218.99l27.99,7.35,8.31,2.18.45.12,16.82,4.42c1.64-.82,3.9-1.67,6.66-1.86.5-.04,1.32-.09,2.41,0,0,0,1.85.15,6.66,1.86,5.45-1.43,10.91-2.86,16.36-4.3,2.68-.7,5.36-1.4,8.03-2.11,9.73-2.55,19.46-5.11,29.18-7.66"/>
      <path class="cls-7" d="M391.35,8.81l.62-7.18c.1-1.12,1.42-1.65,2.27-.92,2.69,2.34,7.95,6.39,15.04,9.49l6,9c-1.01-.03-1.97-.08-2.9-.14-7-.52-11.73-2.13-14.88-3.92-5.14-2.92-6.15-6.33-6.15-6.33l-37.54,18.53-32.26,166.24s4.26,4.16,10.04,4.34c1.07.03,2.2-.07,3.36-.36"/>
      <path class="cls-7" d="M385.34,40.28s13.12,60.01,2.75,120.01l2.05,68.23v.43"/>
      <line class="cls-7" x1="372.02" y1="144.94" x2="381.83" y2="226.34"/>
      <polyline class="cls-7" points="495.6 197.56 495.57 197.44 476.52 121.98 459.79 72.74"/>
      <path class="cls-7" d="M476.71,218.99c-2.16-21.82-9.16-48.34-9.16-48.34-3.96-9.64-6.87-18.21-9.02-25.71-7.34-25.6-5.71-38.65-5.71-38.65,6.88-11.42,7.58-24.54,6.96-33.55-.09-1.4-.22-2.7-.36-3.88-.53-4.35-1.24-7.06-1.24-7.06l-12.97-21.52-12.16-25.14"/>
      <path class="cls-7" d="M439.21,8.81l-.63-7.18c-.1-1.12-1.42-1.65-2.27-.92-2.69,2.34-7.95,6.39-15.03,9.49l-6,9c1-.03,1.97-.08,2.89-.14,7-.52,11.72-2.13,14.88-3.92,5.15-2.92,6.16-6.33,6.16-6.33l37.53,18.53,32.26,166.24s-4.28,4.07-10.07,4.22c-1.07.04-2.2-.07-3.36-.36"/>
      <path class="cls-7" d="M445.21,40.28s-13.12,60.01-2.75,120.01l-3.03,68.21"/>
      <line class="cls-7" x1="458.53" y1="144.94" x2="447.53" y2="226.65"/>
      <line class="cls-7" x1="415.28" y1="144.94" x2="415.28" y2="19.2"/>
      <polyline class="cls-7" points="412.37 19.2 412.37 147.47 415.28 147.47 418.18 147.47 418.18 19.2"/>
      <path class="cls-7" d="M390.15,228.95s.15-.11.44-.31c3.23-2.21,23.94-15.07,48.84-.14"/>
      <polyline class="cls-7" points="371.83 67.82 345.96 133.62 331.59 197.92 331.59 197.93"/>
      <polyline class="cls-7" points="459.42 68.86 483.9 132.92 498.93 197.8 498.96 197.92"/>
    </g>
  </g>
  <g>
    <path class="cls-3" d="M436.93,18.78c-.24-.08-.42-.25-.57-.49-.07-.13-.13-.26-.17-.4-.02-.07-.03-.13-.05-.18-.01-.05-.02-.09-.03-.13-.02-.03-.04-.04-.06-.04-.02,0-.04,0-.05.01l-.03-.05.57-.42.05.03c-.05.07-.09.14-.13.23-.03.08-.05.17-.06.26,0,.09,0,.18.02.28.02.09.06.19.11.28.05.08.1.14.16.2.06.05.13.09.2.11.07.02.15.03.22.02.08,0,.15-.03.22-.07.15-.09.25-.22.28-.38.01-.08.03-.17.03-.27,0-.1,0-.2,0-.31,0-.13,0-.25,0-.37,0-.11.02-.22.05-.33.05-.21.17-.37.38-.49.18-.11.39-.12.61-.05.22.07.39.22.52.43.07.12.11.24.14.36.02.06.03.12.04.17.01.05.02.09.03.12.02.03.04.04.06.04.02,0,.04,0,.06,0l.03.04-.58.41-.04-.06c.1-.12.17-.26.19-.42.02-.16-.02-.34-.13-.53-.08-.14-.19-.23-.32-.27-.13-.04-.26-.02-.38.05s-.2.2-.23.4c-.02.19-.03.4-.03.63v-.04c0,.14,0,.28,0,.39,0,.12-.03.23-.07.33-.03.1-.08.19-.14.26-.06.08-.14.14-.24.2-.21.12-.43.13-.67.05Z"/>
    <path class="cls-3" d="M437.03,19.33l.04-.02.03.06c.03.05.07.08.1.08.04,0,.1-.02.17-.06l2.26-1.32c.08-.04.12-.08.14-.12.02-.03.01-.08-.02-.13l-.03-.06.04-.02,1.05,1.8-.41.25-.03-.06c.1-.08.14-.15.13-.22,0-.06-.04-.13-.09-.22l-.48-.82s-.05-.07-.06-.07c-.01,0-.04.01-.08.04l-.93.54.48.82c.06.11.11.17.16.18.04.02.11,0,.2-.04l.03.05-.61.36-.03-.05s.07-.06.09-.08c.02-.02.04-.05.04-.08,0-.03,0-.06-.01-.1-.01-.04-.03-.08-.06-.13l-.48-.82-1.06.61s-.05.05-.04.08c0,.03.04.09.08.16l.39.67c.04.06.07.12.11.16.03.04.07.08.12.1.04.03.09.04.15.05.05,0,.12,0,.2,0l.04.06-.54.18-1.07-1.84Z"/>
    <path class="cls-3" d="M439.9,24.25l-.4-.69.04-.02c.04.06.08.1.11.12.02,0,.04,0,.06-.01.03,0,.05-.03.08-.07l.47-.61-.71-1.22-.7.1c-.07.01-.12.02-.14.04-.02.01-.04.03-.04.05-.01.04,0,.1.04.16l-.04.02-.35-.61.04-.02c.04.06.09.09.16.11.07.02.14.02.23.01l3.09-.41.11.18-1.97,2.58c-.04.07-.06.11-.05.15,0,.03,0,.07.02.1l-.04.02ZM441.42,21.49l-1.63.23.62,1.07,1.01-1.3Z"/>
    <path class="cls-3" d="M443.33,24.68c.12-.07.2-.13.24-.18.04-.05.04-.1,0-.16l-.04-.06.04-.02.37.64-.04.02-.04-.06c-.04-.06-.08-.09-.14-.08-.06,0-.15.05-.27.12l-1.42.82c-.32.19-.62.24-.9.17-.28-.08-.51-.28-.7-.6s-.25-.63-.18-.91c.07-.28.27-.51.6-.7l1.53-.89c.08-.04.12-.08.14-.12.02-.04,0-.08-.03-.14l-.04-.06.04-.02.44.75-.04.02-.03-.06c-.04-.06-.07-.09-.11-.09-.04,0-.1.02-.17.06l-1.54.9c-.54.31-.66.71-.38,1.2.14.23.31.38.52.43.21.05.43.01.67-.13l1.46-.85Z"/>
    <path class="cls-3" d="M441.91,27.17c-.08.04-.12.08-.14.12-.02.03,0,.08.03.14l.03.06-.04.02-.43-.74.04-.02.03.06c.03.05.07.08.1.08.04,0,.1-.02.17-.06l2.26-1.32c.08-.04.12-.08.14-.12.02-.03.01-.08-.02-.13l-.03-.06.04-.02.56.97c.17.29.23.54.2.77-.03.23-.16.41-.4.55-.17.1-.35.13-.53.08-.19-.05-.36-.18-.53-.39-.02.12-.05.23-.07.32-.02.1-.05.17-.07.24-.02.06-.05.14-.08.22-.03.08-.07.17-.11.26-.03.08-.07.16-.13.23-.05.08-.1.15-.14.21-.04.07-.07.13-.09.2-.02.06-.01.12.02.18l-.04.02-.29-.49c.04-.06.08-.12.11-.17.03-.05.07-.1.1-.16.03-.06.07-.11.09-.16.06-.12.12-.25.17-.38.05-.13.09-.22.11-.29.05-.13.09-.33.12-.59l-.15-.25-1.04.6ZM443.26,26.65c.14.25.3.41.48.49.18.08.37.07.56-.04.17-.1.26-.23.28-.39.01-.16-.04-.35-.17-.57-.05-.09-.09-.15-.13-.19-.03-.04-.08-.07-.12-.08l-1.01.59.11.19Z"/>
    <path class="cls-3" d="M443.48,29.3c-.11.32-.07.64.13.98.08.15.19.28.32.39.13.11.26.19.41.24l-.12.14c-.19-.06-.35-.16-.49-.28-.14-.12-.26-.27-.36-.45-.24-.42-.31-.83-.2-1.22.11-.4.38-.72.82-.97s.83-.31,1.25-.21c.42.1.74.36.97.75.09.15.15.3.2.46.03.08.05.14.06.19.01.05.03.1.03.13.01.02.04.03.07.04.04,0,.07,0,.1,0l.03.04-.54.34-.11.07-.04-.04c.07-.1.12-.19.14-.28.03-.09.04-.18.03-.28,0-.09-.02-.18-.05-.26-.02-.09-.06-.17-.1-.24-.19-.32-.45-.52-.78-.58-.33-.06-.68.02-1.05.24s-.62.49-.73.8Z"/>
    <path class="cls-3" d="M446.9,30.18s0-.08-.03-.14l-.03-.06.04-.02.43.74-.04.02-.03-.06c-.03-.06-.07-.09-.11-.09-.04,0-.1.02-.17.06l-1,.58.77,1.32,1-.58c.08-.04.12-.08.14-.12.02-.03,0-.08-.03-.14l-.03-.06.04-.02.43.74-.04.02-.03-.06c-.03-.06-.07-.09-.11-.09-.04,0-.1.02-.17.06l-2.26,1.32c-.08.04-.12.08-.14.12-.02.03,0,.08.02.14l.03.06-.04.02-.43-.74.04-.02.03.06c.04.06.07.09.11.09.04,0,.1-.02.17-.06l1.06-.62-.77-1.32-1.06.62c-.08.04-.12.08-.14.12-.02.03-.01.08.02.14l.03.06-.04.02-.43-.74.04-.02.03.06c.04.06.07.09.11.09.04,0,.1-.02.17-.06l2.26-1.32c.08-.04.12-.08.14-.12Z"/>
    <path class="cls-3" d="M446.13,34.78s0,.08.03.15l.04.06-.04.02-.46-.78.04-.02.04.06c.04.07.08.1.12.1.04,0,.1-.02.17-.06l2.26-1.32c.08-.04.12-.08.14-.12s0-.08-.03-.15l-.04-.06.04-.02.46.78-.04.02-.04-.06c-.04-.07-.08-.1-.12-.1-.04,0-.1.02-.17.06l-2.26,1.32c-.08.04-.12.08-.14.12Z"/>
    <path class="cls-3" d="M449.95,36.01c.11-.07.19-.12.22-.16.03-.04.03-.1,0-.16l-.04-.07.04-.02.38.66-.04.02-.04-.06c-.04-.06-.08-.09-.14-.08-.05,0-.14.04-.25.11l-2.42,1.41-.12-.21,1.38-2.97-1.97,1.15c-.11.06-.18.12-.21.16-.03.04-.03.1,0,.16l.04.06-.04.02-.38-.65.04-.02.04.06c.04.06.08.09.14.09.05,0,.14-.04.24-.1l2.2-1.28.09-.14s.02-.05.01-.06c0-.02-.01-.04-.03-.06l-.03-.05.04-.02.31.53c-.23.47-.45.94-.66,1.4-.21.46-.43.92-.66,1.4l1.87-1.09Z"/>
  </g>
  <path class="cls-7" d="M75.6,295.35l.76-4.69c.09-1.09,1.34-2.06,2.44-2.17,4.73-.45,7.7-.3,19.06-.3"/>
  <g>
    <g>
      <path class="cls-2" d="M418.18,405.97l-1.04,104.07c-.07.02-.15.03-.22.05h-.02c-2.95.67-5.81,1.81-5.81,1.81l-48.6-14.07c-3.81-21.46,4.11-56.46,4.11-56.46,10.15-24.84,13.52-38.13,14.62-44.2,0,0,15.42,8.61,36.96,8.8Z"/>
      <path class="cls-2" d="M418.18,405.97c11.12.09,23.87-2.06,36.97-8.8,1.1,6.07,4.47,19.36,14.62,44.2,0,0,7.92,35,4.11,56.46l-48.61,14.07s-3.01-1.2-6.04-1.86l-2.31.05c.07-.02.15-.03.22-.05l1.04-104.07Z"/>
      <path class="cls-8" d="M473.45,310.95l29.28,161.65s-3.78,3.94-8.92,4.22l-.03-.42c-8.3-80.46-32.27-133.03-42.42-152.28-1.3-2.82-2.83-5.54-4.58-8.13l-.06-.09c-.67-.99-1.37-1.95-2.1-2.9l-16.16-20.92c3.6.16,7.3.43,10.94.85l.36.19,33.69,17.83Z"/>
      <path class="cls-4" d="M387.04,320.11c1.38-2.47,2.96-4.85,4.7-7.11l16.11-20.84c5.63-.27,12.92-.42,20.61-.08l16.16,20.92c.73.95,1.43,1.91,2.1,2.9l.06.09c.33.53,2.01,3.27,4.58,8.13,1.25,2.71,2.28,5.51,3.09,8.39l5.76,20.5s.03,1.1-.08,3.29c-.25,5.45-1.31,17.67-5.54,36.62,0,0,0,1.24.56,4.25-13.1,6.74-25.85,8.89-36.97,8.8-21.54-.19-36.96-8.8-36.96-8.8.56-3.01.56-4.25.56-4.25-4.25-18.95-5.29-31.17-5.54-36.62-.11-2.19-.08-3.29-.08-3.29l5.75-20.5c1.21-4.31,2.93-8.47,5.12-12.38t.01-.02Z"/>
      <path class="cls-1" d="M493.78,476.4l.03.42c-.9.04-1.85-.03-2.83-.25l.04-.17-17.32-75.58-13.49-44.52h-.08c.11-2.19.08-3.29.08-3.29l-5.76-20.5c-.81-2.88-1.84-5.68-3.09-8.39,10.15,19.25,34.12,71.82,42.42,152.28Z"/>
      <path class="cls-8" d="M407.85,292.16l-16.11,20.84c-1.74,2.26-3.32,4.64-4.7,7.11t-.01.02c-2,3.22-34.14,56.3-44.35,156.27v.42c-5.22-.22-9.04-4.22-9.04-4.22l29.27-161.65,33.7-17.83.36-.19s4.31-.46,10.88-.77Z"/>
      <path class="cls-2" d="M407.85,292.16c-6.57.31-10.88.77-10.88.77l-.36.19-.19-.36.76-4.69c.09-1.09,1.34-2.07,2.44-2.17,4.73-.45,7.69-.3,19.06-.3s13.2-.15,17.93.3c1.09.1,2.34,1.08,2.43,2.17l.91,4.69-.19.36-.36-.19c-3.64-.42-7.34-.69-10.94-.85-7.69-.34-14.98-.19-20.61.08Z"/>
      <path class="cls-1" d="M342.68,476.4c10.21-99.97,42.35-153.05,44.35-156.27-2.19,3.91-3.91,8.07-5.12,12.38l-5.75,20.5s-.03,1.1.08,3.29h-.08l-13.5,44.52-17.31,75.58.04.17c-.94.21-1.85.28-2.72.25v-.42Z"/>
    </g>
    <g>
      <polyline class="cls-7" points="345.35 476.4 362.66 400.82 376.16 356.3"/>
      <path class="cls-7" d="M387.04,320.11c1.38-2.47,2.96-4.85,4.7-7.11l16.11-20.84.37-.48"/>
      <path class="cls-7" d="M362.49,497.83c-3.81-21.46,4.11-56.46,4.11-56.46,10.15-24.84,13.52-38.13,14.62-44.2.56-3.01.56-4.25.56-4.25-4.25-18.95-5.29-31.17-5.54-36.62-.11-2.19-.08-3.29-.08-3.29l5.75-20.5c1.21-4.31,2.93-8.47,5.12-12.38"/>
      <path class="cls-6" d="M416.92,510.09c.07-.02.15-.03.22-.05l1.04-104.07"/>
      <path class="cls-6" d="M362.49,497.83l48.6,14.07s2.86-1.14,5.81-1.81"/>
      <path class="cls-7" d="M345.8,476.47c-.14.04-.27.07-.41.1-.94.21-1.85.28-2.72.25-5.21-.22-9.03-4.22-9.03-4.22l29.27-161.65,33.7-17.83.36-.19s4.31-.46,10.88-.77c5.63-.27,12.92-.42,20.61-.08,3.6.16,7.3.43,10.94.85l.36.19,33.69,17.83,29.28,161.65s-3.78,3.94-8.92,4.22c-.9.04-1.85-.03-2.83-.25-.14-.03-.27-.06-.41-.1"/>
      <polyline class="cls-7" points="491.02 476.4 473.7 400.82 460.21 356.3"/>
      <path class="cls-7" d="M446.72,315.9c-.67-.99-1.37-1.95-2.1-2.9l-16.16-20.92-.51-.66"/>
      <path class="cls-7" d="M473.88,497.83c3.81-21.46-4.11-56.46-4.11-56.46-10.15-24.84-13.52-38.13-14.62-44.2-.56-3.01-.56-4.25-.56-4.25,4.23-18.95,5.29-31.17,5.54-36.62.11-2.19.08-3.29.08-3.29l-5.76-20.5c-.81-2.88-1.84-5.68-3.09-8.39-1.3-2.82-2.83-5.54-4.58-8.13"/>
      <path class="cls-7" d="M439.95,292.76l-.91-4.69c-.09-1.09-1.34-2.07-2.43-2.17-4.73-.45-6.57-.3-17.93-.3"/>
      <path class="cls-7" d="M416.92,510.09l2.31-.05c3.03.66,6.04,1.86,6.04,1.86l48.61-14.07"/>
      <line class="cls-6" x1="416.9" y1="510.09" x2="416.92" y2="510.09"/>
      <path class="cls-7" d="M342.68,476.4c10.21-99.97,42.35-153.05,44.35-156.27t.01-.02c.06-.09.09-.14.09-.14"/>
      <path class="cls-7" d="M493.78,476.4c-8.3-80.46-32.27-133.03-42.42-152.28-2.57-4.86-4.25-7.6-4.58-8.13l-.06-.09"/>
      <path class="cls-7" d="M396.42,292.76l.76-4.69c.09-1.09,1.34-2.07,2.44-2.17,4.73-.45,7.69-.3,19.06-.3"/>
      <path class="cls-6" d="M381.22,397.17s15.42,8.61,36.96,8.8c11.12.09,23.87-2.06,36.97-8.8"/>
    </g>
  </g>
  <g>
    <g>
      <g>
        <path class="cls-3" d="M391.31,336.15c0-.49.36-.86.86-.86s.86.37.86.86-.36.85-.86.85-.86-.37-.86-.85ZM392.94,336.15c0-.44-.32-.78-.78-.78s-.78.34-.78.78.32.78.78.78.78-.33.78-.78Z"/>
        <path class="cls-3" d="M392.16,337.03c-.51,0-.88-.37-.88-.88s.37-.88.88-.88.88.37.88.88-.37.88-.88.88ZM392.16,335.32c-.48,0-.83.35-.83.83s.35.83.83.83.83-.35.83-.83-.35-.83-.83-.83ZM392.16,336.95c-.46,0-.8-.35-.8-.8s.35-.81.8-.81.8.34.8.81-.34.8-.8.8ZM392.16,335.4c-.43,0-.75.32-.75.75s.32.75.75.75.75-.32.75-.75-.32-.75-.75-.75Z"/>
      </g>
      <g>
        <path class="cls-3" d="M394.63,336.44v-.74h.08v.73c0,.31.18.5.46.5s.46-.19.46-.5v-.73h.08v.74c0,.34-.21.56-.54.56s-.54-.22-.54-.56Z"/>
        <path class="cls-3" d="M395.17,337.03c-.34,0-.57-.23-.57-.59v-.77h.13v.76c0,.29.17.47.44.47s.44-.18.44-.47v-.76h.13v.77c0,.36-.22.59-.57.59ZM394.66,335.73v.72c0,.33.2.53.51.53s.51-.2.51-.53v-.72h-.02v.71c0,.32-.19.52-.49.52s-.49-.2-.49-.52v-.71h-.02Z"/>
      </g>
      <g>
        <path class="cls-3" d="M398.06,335.7v.07h-.11c-.27,0-.45.21-.45.49v.72h-.08v-1.28h.06v.29c.09-.18.25-.29.47-.29h.11Z"/>
        <path class="cls-3" d="M397.53,337.01h-.13v-1.33h.11v.22c.11-.14.26-.22.44-.22h.14v.13h-.14c-.25,0-.42.19-.42.46v.75ZM397.45,336.95h.02v-.69c0-.3.19-.52.47-.52h.09v-.02h-.08c-.2,0-.35.1-.43.28l-.05.11-.02-.38h0v1.23Z"/>
      </g>
      <g>
        <path class="cls-3" d="M402.63,336.36h-1.19c.01.33.25.57.57.57.23,0,.41-.12.51-.32h.08c-.12.25-.33.39-.59.39-.37,0-.64-.29-.64-.67s.28-.66.64-.66.63.29.63.66c0,.01,0,.02,0,.03ZM401.43,336.29h1.12c-.02-.32-.25-.54-.55-.54s-.54.23-.57.54Z"/>
        <path class="cls-3" d="M402,337.03c-.38,0-.67-.3-.67-.69s.29-.69.67-.69.66.29.66.68c0,.01,0,.02,0,.03v.03h-1.19c.02.3.25.51.54.51.21,0,.38-.11.48-.3h0s.14-.01.14-.01l-.02.04c-.12.26-.34.41-.61.41ZM402,335.7c-.35,0-.61.27-.61.64s.26.64.61.64c.24,0,.43-.12.55-.34h-.02c-.11.2-.3.32-.52.32-.33,0-.58-.25-.59-.59v-.03s1.2,0,1.2,0h0c0-.36-.26-.63-.6-.63ZM402.58,336.32h-1.18v-.03c.02-.33.27-.57.59-.57s.56.23.58.57v.03ZM401.46,336.26h1.06c-.03-.29-.24-.49-.53-.49s-.5.2-.54.49Z"/>
      </g>
      <g>
        <path class="cls-3" d="M406.07,336.17v.81h-.07v-.79c0-.27-.15-.44-.37-.44-.25,0-.43.2-.43.49v.75h-.07v-.79c0-.27-.14-.44-.37-.44-.25,0-.43.2-.43.49v.75h-.08v-1.28h.06v.26c.09-.18.26-.29.46-.29s.35.13.41.33c.07-.2.25-.33.46-.33.26,0,.43.2.43.5Z"/>
        <path class="cls-3" d="M406.09,337.01h-.13v-.82c0-.25-.13-.42-.34-.42-.24,0-.4.18-.41.46v.78h-.13v-.82c0-.26-.13-.42-.34-.42-.24,0-.4.18-.41.46v.78h-.13v-1.33h.11v.19c.1-.14.26-.22.43-.22.19,0,.34.1.41.28.09-.18.26-.28.46-.28.27,0,.46.21.46.52v.83ZM406.02,336.95h.02v-.78c0-.28-.16-.47-.4-.47-.21,0-.37.12-.44.31l-.03.08-.02-.08c-.05-.19-.19-.31-.38-.31s-.35.1-.42.27l-.05.1-.02-.35h0v1.23h.02v-.72c0-.3.19-.51.46-.51.24,0,.39.18.39.47v.76h.02v-.72c0-.3.19-.51.46-.51.23,0,.39.19.39.47v.76Z"/>
      </g>
      <g>
        <path class="cls-3" d="M409.09,336.34c0,.38-.27.66-.65.66-.26,0-.48-.14-.58-.36v.78h-.08v-1.73h.06v.34c.12-.22.34-.36.6-.36.38,0,.65.29.65.66ZM409.01,336.34c0-.34-.24-.59-.58-.59s-.58.25-.58.59.25.59.58.59.58-.25.58-.59Z"/>
        <path class="cls-3" d="M407.89,337.46h-.13v-1.79h.11v.27c.13-.18.34-.29.57-.29.39,0,.68.29.68.69s-.28.69-.68.69c-.23,0-.43-.1-.56-.28v.71ZM407.81,337.4h.02v-.87l.05.1c.1.21.31.34.56.34.36,0,.62-.27.62-.64s-.26-.64-.62-.64c-.25,0-.46.13-.56.34l-.05.1-.02-.42h0v1.68ZM408.44,336.96c-.35,0-.61-.27-.61-.62s.26-.62.61-.62.6.26.6.62-.25.62-.6.62ZM408.44,335.78c-.32,0-.55.24-.55.56s.24.56.55.56.55-.24.55-.56-.23-.56-.55-.56Z"/>
      </g>
      <g>
        <path class="cls-3" d="M411.33,336.91v.07h-.17c-.24,0-.38-.15-.38-.39v-.82h-.3v-.07h.3v-.38h.08v.38h.46v.07h-.46v.82c0,.2.11.32.31.32h.16Z"/>
        <path class="cls-3" d="M411.35,337.01h-.19c-.25,0-.41-.16-.41-.42v-.79h-.3v-.12h.3v-.38h.13v.38h.46v.12h-.46v.79c0,.19.1.29.29.29h.19v.13ZM410.51,335.74h.3v.85c0,.23.13.36.36.36h.14v-.02h-.13c-.21,0-.34-.13-.34-.35v-.85h.46s-.46-.01-.46-.01v-.38h-.02v.38h-.3Z"/>
      </g>
      <g>
        <path class="cls-3" d="M412.85,335.28h.11v.13h-.11v-.13ZM412.87,335.7h.08v1.28h-.08v-1.28Z"/>
        <path class="cls-3" d="M412.97,337.01h-.13v-1.33h.13v1.33ZM412.9,336.95h.02v-1.23h-.02v1.23ZM412.99,335.44h-.17v-.19h.17v.19ZM412.88,335.39h.06v-.08h-.06v.08Z"/>
      </g>
      <g>
        <path class="cls-3" d="M415.76,336.22v.76h-.08v-.74c0-.31-.17-.49-.44-.49s-.48.22-.48.49v.75h-.08v-1.28h.06v.3c.1-.19.29-.32.52-.32.31,0,.5.22.5.55Z"/>
        <path class="cls-3" d="M415.79,337.01h-.13v-.77c0-.29-.15-.46-.41-.46s-.46.21-.46.46v.77h-.13v-1.33h.11v.23c.12-.16.3-.25.49-.25.32,0,.53.23.53.57v.78ZM415.71,336.95h.02v-.73c0-.32-.19-.52-.47-.52-.2,0-.39.12-.48.3l-.05.1-.02-.38h0v1.23h.02v-.72c0-.28.23-.52.51-.52s.47.2.47.52v.72Z"/>
      </g>
      <g>
        <path class="cls-3" d="M418.63,336.36h-1.19c.01.33.25.57.57.57.23,0,.41-.12.51-.32h.08c-.12.25-.33.39-.59.39-.37,0-.64-.29-.64-.67s.28-.66.64-.66.63.29.63.66c0,.01,0,.02,0,.03ZM417.44,336.29h1.12c-.02-.32-.25-.54-.55-.54s-.54.23-.57.54Z"/>
        <path class="cls-3" d="M418.01,337.03c-.38,0-.67-.3-.67-.69s.29-.69.67-.69.66.29.66.68c0,.01,0,.02,0,.03v.03h-1.19c.02.3.25.51.54.51.21,0,.38-.11.48-.3h0s.14-.01.14-.01l-.02.04c-.12.26-.34.41-.61.41ZM418.01,335.7c-.35,0-.61.27-.61.64s.26.64.61.64c.24,0,.43-.12.55-.34h-.02c-.11.2-.3.32-.52.32-.33,0-.58-.25-.59-.59v-.03s1.2,0,1.2,0h0c0-.36-.26-.63-.6-.63ZM418.59,336.32h-1.18v-.03c.02-.33.27-.57.59-.57s.56.23.58.57v.03ZM417.47,336.26h1.06c-.03-.29-.24-.49-.53-.49s-.5.2-.54.49Z"/>
      </g>
      <g>
        <path class="cls-3" d="M420.13,336.63h.07c.02.19.17.3.41.3s.41-.11.41-.29c0-.22-.21-.26-.42-.3-.22-.04-.45-.08-.45-.33,0-.2.18-.34.45-.34s.44.14.46.36h-.07c-.01-.18-.15-.29-.39-.29s-.38.11-.38.27c0,.19.18.22.39.26.22.04.48.08.48.37,0,.22-.19.37-.48.37s-.47-.14-.49-.37Z"/>
        <path class="cls-3" d="M420.62,337.03c-.3,0-.49-.15-.51-.4v-.03s.13,0,.13,0v.02c.02.18.16.28.39.28s.38-.1.38-.27c0-.19-.16-.23-.4-.27-.22-.04-.47-.08-.47-.36,0-.22.19-.37.48-.37s.47.15.48.38v.03s-.13,0-.13,0v-.03c-.01-.17-.14-.26-.36-.26s-.35.1-.35.24c0,.16.14.19.37.23.21.04.5.08.5.39,0,.24-.2.39-.51.39ZM420.16,336.66c.03.2.2.32.46.32.28,0,.46-.13.46-.34,0-.26-.24-.3-.46-.34-.21-.04-.42-.07-.42-.28,0-.18.16-.3.41-.3s.39.11.41.29h.02c-.02-.19-.18-.3-.43-.3s-.43.13-.43.31c0,.23.21.26.43.3.21.03.44.07.44.32,0,.19-.17.32-.43.32-.24,0-.41-.11-.44-.3h-.02Z"/>
      </g>
      <g>
        <path class="cls-3" d="M422.6,336.63h.07c.02.19.17.3.41.3s.41-.11.41-.29c0-.22-.21-.26-.42-.3-.22-.04-.45-.08-.45-.33,0-.2.18-.34.45-.34s.44.14.46.36h-.07c-.01-.18-.15-.29-.39-.29s-.38.11-.38.27c0,.19.18.22.39.26.22.04.48.08.48.37,0,.22-.19.37-.48.37s-.47-.14-.49-.37Z"/>
        <path class="cls-3" d="M423.09,337.03c-.3,0-.49-.15-.51-.4v-.03s.13,0,.13,0v.02c.02.18.16.28.39.28s.38-.1.38-.27c0-.19-.16-.23-.4-.27-.22-.04-.47-.08-.47-.36,0-.22.19-.37.48-.37s.47.15.48.38v.03s-.13,0-.13,0v-.03c-.01-.17-.14-.26-.36-.26s-.35.1-.35.24c0,.16.14.19.37.23.21.04.5.08.5.39,0,.24-.2.39-.51.39ZM422.63,336.66c.03.2.2.32.46.32.28,0,.46-.13.46-.34,0-.26-.24-.3-.46-.34-.21-.04-.42-.07-.42-.28,0-.18.16-.3.41-.3s.39.11.41.29h.02c-.02-.19-.18-.3-.43-.3s-.43.13-.43.31c0,.23.21.26.43.3.21.03.44.07.44.32,0,.19-.17.32-.43.32-.24,0-.41-.11-.44-.3h-.02Z"/>
      </g>
      <g>
        <path class="cls-3" d="M427.71,335.77h-.46v1.21h-.08v-1.21h-.28v-.07h.28v-.1c0-.3.11-.41.41-.41h.12v.07h-.11c-.26,0-.35.09-.35.35v.1h.46v.07Z"/>
        <path class="cls-3" d="M427.28,337.01h-.13v-1.21h-.28v-.12h.28v-.07c0-.31.13-.44.44-.44h.14v.12h-.13c-.25,0-.32.07-.32.32v.07h.46v.12h-.46v1.21ZM427.2,336.95h.02v-1.21h.46s-.46-.01-.46-.01v-.13c0-.27.1-.37.38-.37h.08s-.09-.01-.09-.01c-.29,0-.39.1-.39.38v.13h-.28s.28.01.28.01v1.21Z"/>
      </g>
      <g>
        <path class="cls-3" d="M429.07,336.34c0-.38.29-.66.67-.66s.67.28.67.66-.28.66-.67.66-.67-.28-.67-.66ZM430.33,336.34c0-.34-.25-.59-.59-.59s-.59.25-.59.59.25.59.59.59.59-.25.59-.59Z"/>
        <path class="cls-3" d="M429.74,337.03c-.4,0-.69-.3-.69-.69s.3-.69.69-.69.69.3.69.69-.3.69-.69.69ZM429.74,335.7c-.36,0-.64.27-.64.64s.27.64.64.64.64-.27.64-.64-.27-.64-.64-.64ZM429.74,336.96c-.35,0-.62-.27-.62-.62s.26-.62.62-.62.62.27.62.62-.26.62-.62.62ZM429.74,335.78c-.33,0-.56.24-.56.56s.24.56.56.56.56-.24.56-.56-.24-.56-.56-.56Z"/>
      </g>
      <g>
        <path class="cls-3" d="M432.67,335.7v.07h-.11c-.27,0-.45.21-.45.49v.72h-.08v-1.28h.06v.29c.09-.18.25-.29.47-.29h.11Z"/>
        <path class="cls-3" d="M432.13,337.01h-.13v-1.33h.11v.22c.1-.14.26-.22.44-.22h.14v.13h-.14c-.25,0-.42.19-.42.46v.75ZM432.06,336.95h.02v-.69c0-.3.19-.52.47-.52h.09v-.02h-.08c-.2,0-.35.1-.43.28l-.05.11-.02-.38h0v1.23Z"/>
      </g>
      <g>
        <path class="cls-3" d="M437.07,335.7l-.65,1.39c-.12.27-.23.34-.44.34h-.1v-.07h.1c.18,0,.26-.05.37-.29l.08-.16-.6-1.21h.08l.55,1.12.52-1.12h.08Z"/>
        <path class="cls-3" d="M435.98,337.46h-.13v-.12h.12c.16,0,.24-.04.35-.27l.07-.15-.61-1.24h.14l.54,1.09.51-1.09h.14l-.02.04-.65,1.39c-.12.27-.24.36-.46.36ZM435.91,337.4h.07c.2,0,.3-.08.41-.32l.63-1.35h-.02l-.54,1.16-.57-1.16h-.02l.58,1.18-.08.17c-.11.23-.2.31-.4.31h-.07v.02Z"/>
      </g>
      <g>
        <path class="cls-3" d="M438.49,336.34c0-.38.29-.66.67-.66s.67.28.67.66-.28.66-.67.66-.67-.28-.67-.66ZM439.74,336.34c0-.34-.25-.59-.59-.59s-.59.25-.59.59.25.59.59.59.59-.25.59-.59Z"/>
        <path class="cls-3" d="M439.15,337.03c-.4,0-.69-.3-.69-.69s.3-.69.69-.69.69.3.69.69-.3.69-.69.69ZM439.15,335.7c-.36,0-.64.27-.64.64s.27.64.64.64.64-.27.64-.64-.27-.64-.64-.64ZM439.15,336.96c-.35,0-.62-.27-.62-.62s.26-.62.62-.62.62.27.62.62-.26.62-.62.62ZM439.15,335.78c-.33,0-.56.24-.56.56s.24.56.56.56.56-.24.56-.56-.24-.56-.56-.56Z"/>
      </g>
      <g>
        <path class="cls-3" d="M441.42,336.44v-.74h.08v.73c0,.31.18.5.46.5s.46-.19.46-.5v-.73h.08v.74c0,.34-.21.56-.54.56s-.54-.22-.54-.56Z"/>
        <path class="cls-3" d="M441.96,337.03c-.34,0-.57-.23-.57-.59v-.77h.13v.76c0,.29.17.47.44.47s.44-.18.44-.47v-.76h.13v.77c0,.36-.22.59-.57.59ZM441.45,335.73v.72c0,.33.2.53.51.53s.51-.2.51-.53v-.72h-.02v.71c0,.32-.19.52-.49.52s-.49-.2-.49-.52v-.71h-.02Z"/>
      </g>
    </g>
    <g>
      <path class="cls-3" d="M393.38,328.25c.31,0,.56.08.74.23.18.16.28.37.28.64h1.08c0-.42-.2-.77-.6-1.06-.4-.29-.9-.44-1.5-.44s-1.09.15-1.5.44c-.4.29-.6.64-.6,1.06,0,.34.31.68.92,1.04.36.21.74.38,1.13.52.71.26,1.06.55,1.06.87,0,.26-.08.47-.25.62-.17.16-.43.24-.76.24s-.57-.07-.74-.2c-.18-.14-.28-.34-.28-.61h-1.07c0,.41.2.76.6,1.02.4.27.9.41,1.5.41s1.09-.15,1.5-.44c.4-.29.6-.64.6-1.06,0-.34-.31-.69-.94-1.05-.36-.21-.73-.38-1.1-.5-.23-.07-.45-.18-.66-.32-.27-.18-.4-.37-.4-.55,0-.26.08-.47.25-.62.18-.17.43-.25.77-.25Z"/>
      <path class="cls-3" d="M401.06,331.09c-.14.4-.35.71-.64.95-.3.24-.64.37-1.02.37-.45,0-.82-.17-1.11-.51-.27-.3-.46-.72-.57-1.25h4.51c.07-.07.1-.17.1-.3,0-.75-.29-1.38-.86-1.91-.57-.53-1.26-.79-2.07-.79s-1.5.26-2.07.79c-.57.53-.86,1.17-.86,1.91s.29,1.38.86,1.91c.57.53,1.26.79,2.07.79.66,0,1.25-.18,1.77-.55.51-.36.86-.83,1.04-1.4h-1.15ZM398.3,328.79c.29-.34.65-.51,1.1-.51s.86.17,1.19.51c.32.33.51.75.58,1.25h-3.36c.07-.53.23-.94.49-1.25Z"/>
      <path class="cls-3" d="M414.52,330.34c0,.61-.11,1.1-.34,1.46-.25.4-.62.6-1.11.6s-.86-.2-1.11-.6c-.22-.36-.33-.85-.33-1.46v-2.71h-1.06v2.71c0,.78.22,1.42.65,1.91.46.53,1.08.79,1.86.79.56,0,1.05-.14,1.45-.43v.43h1.56v-.59h-.51v-4.23h.51v-.59h-1.56v2.71Z"/>
      <path class="cls-3" d="M418.6,327.64h-1.48v.6h.5v4.21h-.5v.59h1.48v-2.71c0-.58.17-1.06.51-1.45.34-.4.77-.6,1.28-.6l.08-.65c-.71,0-1.33.21-1.87.63v-.62Z"/>
      <path class="cls-3" d="M423.55,328.28c.79,0,1.34.44,1.65,1.31h1.15c-.18-.57-.52-1.04-1.03-1.4-.52-.37-1.11-.55-1.77-.55-.81,0-1.5.26-2.07.79-.57.53-.86,1.16-.86,1.91s.29,1.38.86,1.91c.57.53,1.26.79,2.07.79.66,0,1.25-.18,1.77-.55.51-.36.86-.83,1.03-1.4h-1.15c-.31.87-.86,1.31-1.65,1.31-.51,0-.92-.2-1.23-.6-.31-.39-.46-.87-.46-1.45s.15-1.07.46-1.46c.32-.4.73-.6,1.23-.6Z"/>
      <path class="cls-3" d="M430.54,327.63c-.62,0-1.15.17-1.61.5v-2.34h-1.48v.59h.5v6.07h-.5v.59h1.48v-2.71c0-.59.14-1.08.42-1.46.3-.4.7-.6,1.19-.6s.9.2,1.2.6c.29.38.43.87.43,1.46v2.71h1.05v-2.71c0-.76-.24-1.4-.73-1.91-.5-.53-1.15-.79-1.95-.79Z"/>
      <path class="cls-3" d="M435.19,325.82c-.14,0-.27.05-.37.14-.1.09-.15.21-.15.34s.05.25.15.34c.1.1.23.14.37.14s.27-.05.37-.14c.1-.09.15-.21.15-.34s-.05-.25-.15-.34c-.1-.1-.23-.14-.37-.14Z"/>
      <polygon class="cls-3" points="434.24 328.24 434.74 328.24 434.74 332.45 434.24 332.45 434.24 333.04 435.71 333.04 435.71 327.64 434.24 327.64 434.24 328.24"/>
      <path class="cls-3" d="M441.79,328.42c-.51-.53-1.15-.79-1.94-.79-.62,0-1.16.17-1.62.5v-.5h-1.48v.59h.51v4.22h-.51v.59h1.48v-2.71c0-.59.14-1.08.42-1.46.3-.4.7-.6,1.2-.6s.9.2,1.2.6c.28.38.42.87.42,1.46v2.71h1.06v-2.71c0-.77-.24-1.4-.73-1.91Z"/>
      <path class="cls-3" d="M410.63,332.55l-1.55-1.2v-3.12h.5v-.6h-1.48v.63c-.13-.1-.26-.19-.4-.26l1.09-1.93-1.52,1.74c-.32-.11-.65-.17-1.01-.17l-.32-1.64-.05,1.66c-.41.04-.78.16-1.12.34l-2.67-2.6,1.95,3.15c-.49.51-.74,1.1-.74,1.79,0,.52.14.98.42,1.4l-1.73,1.68,1.92-1.44c.08.09.16.18.26.27.56.52,1.25.79,2.05.79l.06,1.62.15-1.63c.62-.04,1.18-.24,1.67-.62v.63h1.48v-.59h-.5v-.61l1.55.71ZM407.56,331.8c-.31.33-.66.53-1.07.58l.1-1.09h-.43s.04,1.11.04,1.11c-.5,0-.92-.21-1.28-.6-.1-.12-.19-.24-.27-.37l1.26-.94-.4-.47-1.03,1c-.06-.21-.1-.43-.1-.67,0-.57.18-1.05.54-1.45.27-.3.59-.49.95-.56v.41s.61-.05.61-.05l-.08-.39c.45.04.84.23,1.16.59.36.4.54.89.54,1.45s-.18,1.05-.54,1.46Z"/>
    </g>
  </g>
  <g>
    <path class="cls-3" d="M362.44,69.14c.15.23.23.5.23.81s-.08.6-.25.83-.4.34-.71.34c-.35,0-.6-.12-.74-.35-.14-.24-.21-.51-.21-.81,0-.28.07-.54.21-.79s.39-.37.75-.37c.34,0,.59.11.73.34ZM362.14,69.95c0-.27-.04-.46-.12-.59s-.18-.2-.32-.2-.24.07-.32.21c-.08.14-.11.34-.11.58,0,.26.04.46.12.6.08.14.18.2.31.2s.24-.07.32-.2.12-.34.12-.6Z"/>
    <polygon class="cls-3" points="361.97 55.8 359.96 58.26 359.04 59.5 359.04 64.02 359.96 65.25 361.97 67.72 359.77 67.72 357.95 65.25 356.12 67.72 353.93 67.72 355.94 65.25 356.85 64.02 356.85 59.5 355.94 58.26 353.93 55.8 356.12 55.8 357.95 58.26 359.77 55.8 361.97 55.8"/>
    <polygon class="cls-3" points="360.54 68.83 360.54 69.19 359.9 69.19 359.9 71.09 359.38 71.09 359.38 69.19 358.75 69.19 358.75 68.83 360.54 68.83"/>
    <path class="cls-3" d="M358.34,69.14c.15.23.22.5.22.81s-.08.6-.25.83c-.16.23-.4.34-.71.34-.35,0-.6-.12-.74-.35-.14-.24-.22-.51-.22-.81,0-.28.07-.54.21-.79.14-.25.39-.37.75-.37.34,0,.58.11.73.34ZM358.04,69.95c0-.27-.04-.46-.12-.59-.08-.13-.18-.2-.32-.2-.14,0-.25.07-.32.21-.08.14-.11.34-.11.58,0,.26.04.46.12.6.08.14.19.2.31.2s.24-.07.32-.2c.08-.13.12-.34.12-.6Z"/>
    <polygon class="cls-3" points="356.35 68.83 356.35 71.09 355.83 71.09 355.83 70.11 355.46 71.09 355.08 71.09 354.71 70.11 354.71 71.09 354.19 71.09 354.19 68.83 354.74 68.83 355.27 70.29 355.79 68.83 356.35 68.83"/>
    <path class="cls-3" d="M353.05,68.82l.93,2.27h-.56l-.17-.4h-.78l-.17.4h-.55l.93-2.27h.36ZM353.12,70.26l-.25-.67-.25.67h.49Z"/>
    <polygon class="cls-3" points="353.93 55.8 351.92 58.26 351 59.5 351 64.02 351.92 65.25 353.93 67.72 351.73 67.72 349.91 65.25 348.08 67.72 345.89 67.72 347.9 65.25 348.81 64.02 348.81 59.5 347.9 58.26 345.89 55.8 348.08 55.8 349.91 58.26 351.73 55.8 353.93 55.8"/>
    <polygon class="cls-3" points="351.56 68.83 351.56 71.09 351.04 71.09 351.04 70.11 350.67 71.09 350.3 71.09 349.93 70.11 349.93 71.09 349.4 71.09 349.4 68.83 349.96 68.83 350.48 70.29 351.01 68.83 351.56 68.83"/>
    <path class="cls-3" d="M348.27,68.82l.93,2.27h-.56l-.17-.4h-.78l-.17.4h-.56l.93-2.27h.36ZM348.33,70.26l-.25-.67-.25.67h.49Z"/>
    <polygon class="cls-3" points="346.91 68.83 346.23 70.13 346.23 71.09 345.7 71.09 345.7 70.13 345.01 68.83 345.56 68.83 345.96 69.65 346.37 68.83 346.91 68.83"/>
  </g>
  <path class="cls-5" d="M97.26,512.64l1.05-104.07"/>
  <path class="cls-5" d="M60.58,398.74s13.77,10.52,37.72,9.83c11.11-.32,22.92-2.06,36.02-8.79"/>
</svg>